<svg xmlns="http://www.w3.org/2000/svg" width="18" height="18" viewBox="0 0 32 32">
    <g fill="none" fill-rule="evenodd">
        <rect width="32" height="32" fill="#0077B5" rx="4"/>
        <g fill="#FFF" fill-rule="nonzero">
            <path d="M6.224 13h4v13h-4zM23.878 14.455c-.896-.97-2.082-1.455-3.557-1.455a5.17 5.17 0 0 0-1.48.199c-.445.132-.82.318-1.126.557a5.5 5.5 0 0 0-.73.667c-.173.195-.341.422-.505.678v-1.806h-4.256l.013.615c.009.41.013 1.675.013 3.795S12.24 22.59 12.224 26h4.256v-7.09c0-.436.047-.782.142-1.038.181-.437.455-.802.821-1.096.367-.296.822-.443 1.365-.443.741 0 1.287.254 1.636.763.35.508.524 1.211.524 2.109V26h4.256v-7.282c0-1.872-.449-3.293-1.346-4.263zM8.234 7c-.598 0-1.082.19-1.453.567-.372.378-.557.856-.557 1.433 0 .57.18 1.045.54 1.427.36.382.836.573 1.427.573h.022c.605 0 1.094-.19 1.465-.573.37-.382.553-.858.546-1.427-.008-.577-.191-1.055-.552-1.433C9.312 7.19 8.832 7 8.234 7z"/>
        </g>
    </g>
</svg>
