<?xml version="1.0" encoding="UTF-8"?>
<svg xmlns="http://www.w3.org/2000/svg" xmlns:xlink="http://www.w3.org/1999/xlink" width="120px" height="44px" viewBox="0 0 120 44" version="1.1">
<g id="surface1">
<path style=" stroke:none;fill-rule:nonzero;fill:rgb(0%,0%,0%);fill-opacity:1;" d="M 57.246094 10.066406 L 52.746094 16.292969 L 48.246094 10.066406 L 47.128906 10.066406 L 47.128906 20.75 L 49.910156 20.75 L 49.910156 16.554688 L 52.738281 20.574219 L 52.757812 20.574219 L 55.582031 16.554688 L 55.582031 20.75 L 58.363281 20.75 L 58.363281 10.066406 Z M 67.425781 20.75 L 70.472656 20.75 L 65.597656 10.03125 L 64.277344 10.03125 L 59.410156 20.75 L 62.453125 20.75 L 62.984375 19.515625 L 66.898438 19.515625 Z M 63.863281 17.460938 L 64.941406 14.953125 L 66.015625 17.460938 Z M 77.398438 10.164062 L 69.582031 10.164062 L 69.582031 12.792969 L 72.097656 12.792969 L 72.097656 20.75 L 74.886719 20.75 L 74.886719 12.792969 L 77.398438 12.792969 Z M 85.375 12.777344 L 85.375 10.164062 L 78.582031 10.164062 L 78.582031 20.75 L 85.375 20.75 L 85.375 18.117188 L 81.332031 18.117188 L 81.332031 16.601562 L 84.660156 16.601562 L 84.660156 14.257812 L 81.332031 14.257812 L 81.332031 12.777344 Z M 95.78125 20.75 L 92.972656 16.503906 C 94 16.027344 94.789062 14.925781 94.789062 13.605469 C 94.789062 11.707031 93.167969 10.164062 90.90625 10.164062 L 86.929688 10.164062 L 86.941406 20.75 L 89.722656 20.75 L 89.722656 16.152344 L 92.527344 20.75 Z M 89.710938 12.691406 L 90.847656 12.691406 C 91.433594 12.691406 91.980469 13.101562 91.980469 13.757812 C 91.980469 14.40625 91.441406 14.828125 90.847656 14.820312 L 89.710938 14.8125 Z M 96.785156 20.75 L 99.566406 20.75 L 99.566406 10.164062 L 96.785156 10.164062 Z M 108.628906 20.75 L 111.675781 20.75 L 106.800781 10.03125 L 105.480469 10.03125 L 100.613281 20.75 L 103.65625 20.75 L 104.1875 19.515625 L 108.101562 19.515625 Z M 105.066406 17.460938 L 106.144531 14.953125 L 107.21875 17.460938 Z M 115.507812 18.109375 L 115.507812 10.164062 L 112.722656 10.164062 L 112.722656 20.75 L 119.519531 20.75 L 119.519531 18.109375 Z M 50.550781 24.960938 L 47.128906 24.964844 L 47.128906 35.546875 L 50.550781 35.546875 C 54.113281 35.546875 56.289062 33.550781 56.289062 30.265625 C 56.289062 26.957031 54.113281 24.945312 50.550781 24.960938 Z M 50.503906 32.898438 L 49.839844 32.898438 L 49.839844 27.585938 L 50.476562 27.585938 C 52.355469 27.585938 53.5 28.597656 53.5 30.257812 C 53.5 31.902344 52.363281 32.898438 50.503906 32.898438 Z M 64.453125 27.574219 L 64.453125 24.960938 L 57.660156 24.960938 L 57.660156 35.546875 L 64.453125 35.546875 L 64.453125 32.914062 L 60.410156 32.914062 L 60.410156 31.394531 L 63.738281 31.394531 L 63.738281 29.050781 L 60.410156 29.050781 L 60.410156 27.574219 Z M 66.007812 35.546875 L 68.789062 35.546875 L 68.789062 32.425781 L 69.96875 32.425781 C 72.164062 32.425781 73.925781 30.710938 73.925781 28.667969 C 73.925781 26.601562 72.125 24.960938 69.96875 24.960938 L 66.007812 24.960938 Z M 69.96875 29.839844 L 68.789062 29.832031 L 68.789062 27.554688 L 69.96875 27.554688 C 70.707031 27.554688 71.242188 28.039062 71.242188 28.683594 C 71.242188 29.332031 70.714844 29.84375 69.96875 29.839844 Z M 80.402344 35.816406 C 83.664062 35.816406 86.160156 33.417969 86.160156 30.265625 C 86.160156 27.085938 83.664062 24.675781 80.40625 24.675781 C 77.152344 24.675781 74.65625 27.085938 74.65625 30.265625 C 74.65625 33.417969 77.144531 35.816406 80.402344 35.816406 Z M 80.40625 33.128906 C 78.742188 33.128906 77.46875 31.875 77.46875 30.246094 C 77.46875 28.609375 78.742188 27.351562 80.40625 27.351562 C 82.070312 27.351562 83.347656 28.609375 83.347656 30.246094 C 83.347656 31.875 82.070312 33.128906 80.40625 33.128906 Z M 94.183594 24.960938 L 86.371094 24.960938 L 86.371094 27.585938 L 88.882812 27.585938 L 88.882812 35.546875 L 91.671875 35.546875 L 91.671875 27.585938 L 94.183594 27.585938 Z M 94.183594 24.960938 "/>
<path style="fill-rule:nonzero;fill:rgb(0%,0%,0%);fill-opacity:1;stroke-width:2.61988;stroke-linecap:butt;stroke-linejoin:miter;stroke:rgb(0%,0%,0%);stroke-opacity:1;stroke-miterlimit:4;" d="M 53.012109 28 C 53.012109 42.78054 41.402637 54.692472 27.158496 54.692472 C 12.919336 54.692472 1.309863 42.78054 1.309863 28 C 1.309863 13.21946 12.919336 1.307528 27.158496 1.307528 C 41.402637 1.307528 53.012109 13.21946 53.012109 28 Z M 53.012109 28 " transform="matrix(0.784314,0,0,0.785714,0,0)"/>
<path style=" stroke:none;fill-rule:nonzero;fill:rgb(99.607843%,85.098039%,5.098039%);fill-opacity:1;" d="M 29.796875 12.050781 L 21.441406 23.613281 L 13.085938 12.050781 L 11.007812 12.050781 L 11.007812 31.894531 L 16.175781 31.894531 L 16.175781 24.101562 L 21.429688 31.566406 L 21.464844 31.566406 L 26.703125 24.101562 L 26.703125 31.894531 L 31.871094 31.894531 L 31.871094 12.050781 Z M 29.796875 12.050781 "/>
</g>
</svg>
